<svg width="48" height="48" xmlns="http://www.w3.org/2000/svg">
 <defs>
  <clipPath id="clip0_11005_87">
   <rect id="svg_1" x="0.5" y="0" fill="white" height="48" width="48"/>
  </clipPath>
 </defs>
 <g>
  <title>background</title>
  <rect fill="none" id="canvas_background" height="50" width="50" y="-1" x="-1"/>
 </g>
 <g>
  <title>Layer 1</title>
  <g id="svg_2" clip-path="url(#clip0_11005_87)">
   <path id="svg_3" fill="#00A0C1" d="m44.1503,22.2822c-0.5755,0.0042 -1.1455,0.114 -1.6828,0.3242l-5.7403,-4.7847c0.1413,-0.5216 0.2418,-1.0628 0.2418,-1.6331c0,-3.3783 -2.6667,-6.0936 -5.9845,-6.0936c-3.3177,0 -5.9844,2.7153 -5.9844,6.0936c0,0.9652 0.2394,1.8646 0.6272,2.6739l-6.9636,8.3799c-0.2787,-0.0531 -0.5614,-0.0817 -0.845,-0.0853c-0.4285,0 -0.833,0.0731 -1.2256,0.1803l-6.1352,-6.2471c0.1077,-0.3973 0.1795,-0.8093 0.1795,-1.2456c0,-2.7006 -2.13527,-4.8748 -4.78758,-4.8748c-2.65231,0 -4.78756,2.1742 -4.78756,4.8748c0,2.7007 2.13525,4.8749 4.78756,4.8749c0.42849,0 0.83304,-0.0731 1.22562,-0.1803l6.13526,6.2471c-0.1151,0.405 -0.1755,0.824 -0.1795,1.2456c0,2.7007 2.1352,4.8749 4.7875,4.8749c2.6523,0 4.7876,-2.1742 4.7876,-4.8749c0,-0.5777 -0.1149,-1.1213 -0.2944,-1.6356l6.973,-8.3896c0.5434,0.1608 1.106,0.2754 1.6996,0.2754c0.9447,-0.0053 1.8745,-0.2401 2.7122,-0.6849l5.7427,4.7847c-0.0451,0.256 -0.0707,0.5151 -0.0766,0.7751c0,2.7007 2.1352,4.8749 4.7875,4.8749c2.6523,0 4.7876,-2.1742 4.7876,-4.8749c0,-2.7007 -2.1353,-4.8749 -4.7876,-4.8749z"/>
  </g>
 </g>
</svg>